<?xml version="1.0" encoding="utf-8"?>
<!-- Generator: Adobe Illustrator 23.0.0, SVG Export Plug-In . SVG Version: 6.00 Build 0)  -->
<svg version="1.1" id="Capa_1" xmlns="http://www.w3.org/2000/svg" xmlns:xlink="http://www.w3.org/1999/xlink" x="0px" y="0px"
	 viewBox="0 0 424.04 424.04" style="enable-background:new 0 0 424.04 424.04;" xml:space="preserve">
<style type="text/css">
	.st0{fill:#242424;}
	.st1{fill:none;stroke:#242424;stroke-width:14;stroke-linecap:round;stroke-linejoin:round;stroke-miterlimit:10;}
</style>
<g>
	<g>
		<g>
			<path class="st0" d="M72.07,194.23c-20.73,0-37.1,16.63-37.1,37.36s16.63,37.1,37.1,37.1s37.36-16.63,37.36-37.36
				S92.8,194.23,72.07,194.23z M72.07,260.5c-16.12,0-29.17-13.05-29.17-29.17s13.31-28.91,29.17-28.91
				c16.12,0,29.17,13.05,29.17,29.17S88.19,260.5,72.07,260.5z"/>
		</g>
	</g>
	<g>
		<g>
			<path class="st0" d="M83.84,237.21c-0.26-0.77-0.26-1.28-0.77-2.05c-0.26-0.51-0.51-1.28-1.02-1.79
				c-0.51-0.51-0.77-1.02-1.28-1.54c-0.51-0.51-1.02-1.02-1.79-1.28c-0.51-0.51-1.28-0.77-1.79-1.02c-0.77-0.26-1.28-0.77-2.05-1.02
				c-0.77-0.26-1.54-0.51-2.05-0.77c-0.26,0-0.77-0.26-1.02-0.51c-0.26-0.26-0.77-0.26-1.02-0.51c-0.26-0.26-0.77-0.26-1.02-0.51
				c-0.26-0.26-0.51-0.51-0.77-0.77c-0.26-0.26-0.51-0.51-0.51-1.02c-0.26-0.26-0.26-0.77-0.26-1.02c0-0.51,0-0.77,0-1.28
				c0-0.26,0.26-0.77,0.26-1.02c0.26-0.26,0.26-0.77,0.51-1.02c0.26-0.26,0.51-0.51,0.77-0.77c0.26-0.26,0.77-0.51,1.28-0.51
				c0.51-0.26,0.77-0.26,1.28-0.26c0.26,0,0.51,0,0.77,0s0.51,0,0.77,0c0.51,0,0.77,0,1.28,0.26c0.51,0,1.02,0.26,1.28,0.26
				s0.77,0.26,1.02,0.26c0.51,0,0.77,0.26,1.02,0.26l1.28,0.51l0.26-1.54l0.51-4.09v-1.02l-1.02-0.26c-0.26,0-0.77-0.26-1.02-0.26
				s-0.51-0.26-1.02-0.26c-0.26,0-0.77-0.26-1.28-0.26s-0.77-0.26-1.28-0.26h-0.26v-3.58v-1.28h-1.28h-3.58h-1.28v1.28v3.84h-0.26
				c-0.77,0.26-1.54,0.51-2.3,1.02c-0.77,0.26-1.28,0.77-1.79,1.28c-0.51,0.51-1.02,1.02-1.54,1.79c-0.51,0.51-0.77,1.28-1.02,2.05
				s-0.51,1.54-0.77,2.3c-0.26,0.77-0.26,1.79-0.26,2.56s0,1.28,0.26,2.05c0.26,0.77,0.26,1.28,0.77,2.05
				c0.26,0.51,0.77,1.28,1.02,1.79c0.51,0.51,0.77,1.02,1.28,1.54s1.02,1.02,1.79,1.28c0.51,0.51,1.28,0.77,1.79,1.02
				c0.77,0.26,1.54,0.77,2.05,1.02c0.77,0.26,1.54,0.51,2.05,0.77c0.26,0,0.77,0.26,1.02,0.51c0.26,0.26,0.77,0.26,1.02,0.51
				c0.26,0.26,0.51,0.51,0.77,0.51c0.26,0.26,0.51,0.51,0.77,0.77c0.26,0.26,0.26,0.51,0.51,1.02c0,0.26,0.26,0.77,0.26,1.28
				s0,0.77,0,1.28c0,0.26-0.26,0.77-0.51,1.02c-0.26,0.26-0.51,0.51-0.77,0.77c-0.26,0.26-0.51,0.51-1.02,0.77
				c-0.26,0.26-0.77,0.26-1.02,0.51c-0.26,0-0.77,0.26-1.28,0.26c-0.26,0-0.51,0-1.02,0c-0.26,0-0.77,0-1.02,0
				c-0.51,0-1.02,0-1.28,0c-0.51,0-1.02-0.26-1.28-0.26c-0.51,0-1.02-0.26-1.54-0.51c-0.51-0.26-1.02-0.26-1.54-0.51
				c-0.26,0-0.51-0.26-0.77-0.26c-0.26,0-0.51-0.26-0.77-0.26l-1.54-0.77l-0.26,1.79l-0.51,4.61v0.77l0.77,0.26
				c1.02-0.26,1.54,0,2.3,0.26c0.51,0.26,1.28,0.51,1.79,0.51c0.51,0.26,1.28,0.26,2.05,0.51c0.77,0.26,1.28,0.26,2.05,0.26h0.51
				v3.84v1.28h1.28h3.58h1.28v-1.28v-4.09h0.26c0.77-0.26,1.54-0.51,2.3-1.02c0.77-0.26,1.28-0.77,2.05-1.28
				c0.51-0.51,1.02-1.02,1.54-1.79c0.51-0.51,0.77-1.28,1.28-2.05c0.26-0.77,0.51-1.54,0.77-2.3c0.26-0.77,0.26-1.54,0.26-2.56
				C84.1,238.49,84.1,237.98,83.84,237.21z"/>
		</g>
	</g>
</g>
<g>
	<g>
		<g>
			<path class="st0" d="M165.67,152.78c-20.73,0-37.1,16.63-37.1,37.36s16.63,37.1,37.1,37.1s37.36-16.63,37.36-37.36
				S186.4,152.78,165.67,152.78z M165.67,219.05c-16.12,0-29.17-13.05-29.17-29.17s13.31-28.91,29.17-28.91
				c16.12,0,29.17,13.05,29.17,29.17S181.79,219.05,165.67,219.05z"/>
		</g>
	</g>
	<g>
		<g>
			<path class="st0" d="M177.44,195.77c-0.26-0.77-0.26-1.28-0.77-2.05c-0.26-0.51-0.51-1.28-1.02-1.79
				c-0.51-0.51-0.77-1.02-1.28-1.54c-0.51-0.51-1.02-1.02-1.79-1.28c-0.51-0.51-1.28-0.77-1.79-1.02c-0.77-0.26-1.28-0.77-2.05-1.02
				c-0.77-0.26-1.54-0.51-2.05-0.77c-0.26,0-0.77-0.26-1.02-0.51c-0.26-0.26-0.77-0.26-1.02-0.51c-0.26-0.26-0.77-0.26-1.02-0.51
				c-0.26-0.26-0.51-0.51-0.77-0.77c-0.26-0.26-0.51-0.51-0.51-1.02c-0.26-0.26-0.26-0.77-0.26-1.02c0-0.51,0-0.77,0-1.28
				c0-0.26,0.26-0.77,0.26-1.02c0.26-0.26,0.26-0.77,0.51-1.02c0.26-0.26,0.51-0.51,0.77-0.77s0.77-0.51,1.28-0.51
				c0.51-0.26,0.77-0.26,1.28-0.26c0.26,0,0.51,0,0.77,0c0.26,0,0.51,0,0.77,0c0.51,0,0.77,0,1.28,0.26c0.51,0,1.02,0.26,1.28,0.26
				c0.26,0,0.77,0.26,1.02,0.26c0.51,0,0.77,0.26,1.02,0.26l1.28,0.51l0.26-1.54l0.51-4.09v-1.02l-1.02-0.26
				c-0.26,0-0.77-0.26-1.02-0.26c-0.26,0-0.51-0.26-1.02-0.26c-0.26,0-0.77-0.26-1.28-0.26s-0.77-0.26-1.28-0.26h-0.26v-3.58v-1.28
				h-1.28h-3.58h-1.28v1.28v3.84h-0.26c-0.77,0.26-1.54,0.51-2.3,1.02c-0.77,0.26-1.28,0.77-1.79,1.28
				c-0.51,0.51-1.02,1.02-1.54,1.79c-0.51,0.51-0.77,1.28-1.02,2.05c-0.26,0.77-0.51,1.54-0.77,2.3c-0.26,0.77-0.26,1.79-0.26,2.56
				c0,0.77,0,1.28,0.26,2.05s0.26,1.28,0.77,2.05c0.26,0.51,0.77,1.28,1.02,1.79c0.51,0.51,0.77,1.02,1.28,1.54
				c0.51,0.51,1.02,1.02,1.79,1.28c0.51,0.51,1.28,0.77,1.79,1.02c0.77,0.26,1.54,0.77,2.05,1.02c0.77,0.26,1.54,0.51,2.05,0.77
				c0.26,0,0.77,0.26,1.02,0.51c0.26,0.26,0.77,0.26,1.02,0.51c0.26,0.26,0.51,0.51,0.77,0.51c0.26,0.26,0.51,0.51,0.77,0.77
				c0.26,0.26,0.26,0.51,0.51,1.02c0,0.26,0.26,0.77,0.26,1.28s0,0.77,0,1.28c0,0.26-0.26,0.77-0.51,1.02
				c-0.26,0.26-0.51,0.51-0.77,0.77c-0.26,0.26-0.51,0.51-1.02,0.77c-0.26,0.26-0.77,0.26-1.02,0.51c-0.26,0-0.77,0.26-1.28,0.26
				c-0.26,0-0.51,0-1.02,0c-0.26,0-0.77,0-1.02,0c-0.51,0-1.02,0-1.28,0c-0.51,0-1.02-0.26-1.28-0.26c-0.51,0-1.02-0.26-1.54-0.51
				c-0.51-0.26-1.02-0.26-1.54-0.51c-0.26,0-0.51-0.26-0.77-0.26c-0.26,0-0.51-0.26-0.77-0.26l-1.54-0.77l-0.26,1.79l-0.51,4.61
				v0.77l0.77,0.26c1.02-0.26,1.54,0,2.3,0.26c0.51,0.26,1.28,0.51,1.79,0.51c0.51,0.26,1.28,0.26,2.05,0.51
				c0.77,0.26,1.28,0.26,2.05,0.26h0.51v3.84v1.28h1.28h3.58h1.28v-1.28v-4.09h0.26c0.77-0.26,1.54-0.51,2.3-1.02
				c0.77-0.26,1.28-0.77,2.05-1.28c0.51-0.51,1.02-1.02,1.54-1.79c0.51-0.51,0.77-1.28,1.28-2.05c0.26-0.77,0.51-1.54,0.77-2.3
				s0.26-1.54,0.26-2.56C177.7,197.05,177.7,196.54,177.44,195.77z"/>
		</g>
	</g>
</g>
<g>
	<g>
		<g>
			<path class="st0" d="M258.87,165.19c-20.73,0-37.1,16.63-37.1,37.36s16.63,37.1,37.1,37.1s37.36-16.63,37.36-37.36
				S279.6,165.19,258.87,165.19z M258.87,231.46c-16.12,0-29.17-13.05-29.17-29.17s13.31-28.91,29.17-28.91
				c16.12,0,29.17,13.05,29.17,29.17S274.99,231.46,258.87,231.46z"/>
		</g>
	</g>
	<g>
		<g>
			<path class="st0" d="M270.64,208.17c-0.26-0.77-0.26-1.28-0.77-2.05c-0.26-0.51-0.51-1.28-1.02-1.79
				c-0.51-0.51-0.77-1.02-1.28-1.54c-0.51-0.51-1.02-1.02-1.79-1.28c-0.51-0.51-1.28-0.77-1.79-1.02c-0.77-0.26-1.28-0.77-2.05-1.02
				c-0.77-0.26-1.54-0.51-2.05-0.77c-0.26,0-0.77-0.26-1.02-0.51c-0.26-0.26-0.77-0.26-1.02-0.51c-0.26-0.26-0.77-0.26-1.02-0.51
				c-0.26-0.26-0.51-0.51-0.77-0.77c-0.26-0.26-0.51-0.51-0.51-1.02c-0.26-0.26-0.26-0.77-0.26-1.02c0-0.51,0-0.77,0-1.28
				c0-0.26,0.26-0.77,0.26-1.02c0.26-0.26,0.26-0.77,0.51-1.02c0.26-0.26,0.51-0.51,0.77-0.77c0.26-0.26,0.77-0.51,1.28-0.51
				c0.51-0.26,0.77-0.26,1.28-0.26c0.26,0,0.51,0,0.77,0c0.26,0,0.51,0,0.77,0c0.51,0,0.77,0,1.28,0.26c0.51,0,1.02,0.26,1.28,0.26
				s0.77,0.26,1.02,0.26c0.51,0,0.77,0.26,1.02,0.26l1.28,0.51l0.26-1.54l0.51-4.09v-1.02l-1.02-0.26c-0.26,0-0.77-0.26-1.02-0.26
				s-0.51-0.26-1.02-0.26c-0.26,0-0.77-0.26-1.28-0.26s-0.77-0.26-1.28-0.26h-0.26v-3.58v-1.28h-1.28h-3.58h-1.28v1.28v3.84h-0.26
				c-0.77,0.26-1.54,0.51-2.3,1.02c-0.77,0.26-1.28,0.77-1.79,1.28c-0.51,0.51-1.02,1.02-1.54,1.79c-0.51,0.51-0.77,1.28-1.02,2.05
				s-0.51,1.54-0.77,2.3c-0.26,0.77-0.26,1.79-0.26,2.56s0,1.28,0.26,2.05c0.26,0.77,0.26,1.28,0.77,2.05
				c0.26,0.51,0.77,1.28,1.02,1.79c0.51,0.51,0.77,1.02,1.28,1.54c0.51,0.51,1.02,1.02,1.79,1.28c0.51,0.51,1.28,0.77,1.79,1.02
				c0.77,0.26,1.54,0.77,2.05,1.02c0.77,0.26,1.54,0.51,2.05,0.77c0.26,0,0.77,0.26,1.02,0.51c0.26,0.26,0.77,0.26,1.02,0.51
				c0.26,0.26,0.51,0.51,0.77,0.51c0.26,0.26,0.51,0.51,0.77,0.77c0.26,0.26,0.26,0.51,0.51,1.02c0,0.26,0.26,0.77,0.26,1.28
				s0,0.77,0,1.28c0,0.26-0.26,0.77-0.51,1.02c-0.26,0.26-0.51,0.51-0.77,0.77c-0.26,0.26-0.51,0.51-1.02,0.77
				c-0.26,0.26-0.77,0.26-1.02,0.51c-0.26,0-0.77,0.26-1.28,0.26c-0.26,0-0.51,0-1.02,0c-0.26,0-0.77,0-1.02,0
				c-0.51,0-1.02,0-1.28,0c-0.51,0-1.02-0.26-1.28-0.26c-0.51,0-1.02-0.26-1.54-0.51c-0.51-0.26-1.02-0.26-1.54-0.51
				c-0.26,0-0.51-0.26-0.77-0.26c-0.26,0-0.51-0.26-0.77-0.26l-1.54-0.77l-0.26,1.79l-0.51,4.61v0.77l0.77,0.26
				c1.02-0.26,1.54,0,2.3,0.26c0.51,0.26,1.28,0.51,1.79,0.51c0.51,0.26,1.28,0.26,2.05,0.51c0.77,0.26,1.28,0.26,2.05,0.26h0.51
				v3.84v1.28h1.28h3.58h1.28v-1.28v-4.09h0.26c0.77-0.26,1.54-0.51,2.3-1.02c0.77-0.26,1.28-0.77,2.05-1.28
				c0.51-0.51,1.02-1.02,1.54-1.79c0.51-0.51,0.77-1.28,1.28-2.05c0.26-0.77,0.51-1.54,0.77-2.3c0.26-0.77,0.26-1.54,0.26-2.56
				C270.9,209.45,270.9,208.94,270.64,208.17z"/>
		</g>
	</g>
</g>
<g>
	<g>
		<g>
			<path class="st0" d="M352.47,103.78c-20.73,0-37.1,16.63-37.1,37.36s16.63,37.1,37.1,37.1s37.36-16.63,37.36-37.36
				S373.2,103.78,352.47,103.78z M352.47,170.05c-16.12,0-29.17-13.05-29.17-29.17s13.31-28.91,29.17-28.91
				c16.12,0,29.17,13.05,29.17,29.17S368.59,170.05,352.47,170.05z"/>
		</g>
	</g>
	<g>
		<g>
			<path class="st0" d="M364.24,146.77c-0.26-0.77-0.26-1.28-0.77-2.05c-0.26-0.51-0.51-1.28-1.02-1.79
				c-0.51-0.51-0.77-1.02-1.28-1.54c-0.51-0.51-1.02-1.02-1.79-1.28c-0.51-0.51-1.28-0.77-1.79-1.02c-0.77-0.26-1.28-0.77-2.05-1.02
				c-0.77-0.26-1.54-0.51-2.05-0.77c-0.26,0-0.77-0.26-1.02-0.51c-0.26-0.26-0.77-0.26-1.02-0.51c-0.26-0.26-0.77-0.26-1.02-0.51
				c-0.26-0.26-0.51-0.51-0.77-0.77c-0.26-0.26-0.51-0.51-0.51-1.02c-0.26-0.26-0.26-0.77-0.26-1.02c0-0.51,0-0.77,0-1.28
				c0-0.26,0.26-0.77,0.26-1.02c0.26-0.26,0.26-0.77,0.51-1.02c0.26-0.26,0.51-0.51,0.77-0.77c0.26-0.26,0.77-0.51,1.28-0.51
				c0.51-0.26,0.77-0.26,1.28-0.26c0.26,0,0.51,0,0.77,0c0.26,0,0.51,0,0.77,0c0.51,0,0.77,0,1.28,0.26c0.51,0,1.02,0.26,1.28,0.26
				s0.77,0.26,1.02,0.26c0.51,0,0.77,0.26,1.02,0.26l1.28,0.51l0.26-1.54l0.51-4.09v-1.02l-1.02-0.26c-0.26,0-0.77-0.26-1.02-0.26
				s-0.51-0.26-1.02-0.26c-0.26,0-0.77-0.26-1.28-0.26s-0.77-0.26-1.28-0.26h-0.26v-3.58v-1.28h-1.28h-3.58h-1.28v1.28v3.84h-0.26
				c-0.77,0.26-1.54,0.51-2.3,1.02c-0.77,0.26-1.28,0.77-1.79,1.28c-0.51,0.51-1.02,1.02-1.54,1.79c-0.51,0.51-0.77,1.28-1.02,2.05
				c-0.26,0.77-0.51,1.54-0.77,2.3c-0.26,0.77-0.26,1.79-0.26,2.56c0,0.77,0,1.28,0.26,2.05c0.26,0.77,0.26,1.28,0.77,2.05
				c0.26,0.51,0.77,1.28,1.02,1.79c0.51,0.51,0.77,1.02,1.28,1.54s1.02,1.02,1.79,1.28c0.51,0.51,1.28,0.77,1.79,1.02
				c0.77,0.26,1.54,0.77,2.05,1.02c0.77,0.26,1.54,0.51,2.05,0.77c0.26,0,0.77,0.26,1.02,0.51c0.26,0.26,0.77,0.26,1.02,0.51
				c0.26,0.26,0.51,0.51,0.77,0.51c0.26,0.26,0.51,0.51,0.77,0.77c0.26,0.26,0.26,0.51,0.51,1.02c0,0.26,0.26,0.77,0.26,1.28
				s0,0.77,0,1.28c0,0.26-0.26,0.77-0.51,1.02c-0.26,0.26-0.51,0.51-0.77,0.77c-0.26,0.26-0.51,0.51-1.02,0.77
				c-0.26,0.26-0.77,0.26-1.02,0.51c-0.26,0-0.77,0.26-1.28,0.26c-0.26,0-0.51,0-1.02,0c-0.26,0-0.77,0-1.02,0
				c-0.51,0-1.02,0-1.28,0c-0.51,0-1.02-0.26-1.28-0.26c-0.51,0-1.02-0.26-1.54-0.51c-0.51-0.26-1.02-0.26-1.54-0.51
				c-0.26,0-0.51-0.26-0.77-0.26c-0.26,0-0.51-0.26-0.77-0.26l-1.54-0.77l-0.26,1.79l-0.51,4.61v0.77l0.77,0.26
				c1.02-0.26,1.54,0,2.3,0.26c0.51,0.26,1.28,0.51,1.79,0.51c0.51,0.26,1.28,0.26,2.05,0.51c0.77,0.26,1.28,0.26,2.05,0.26h0.51
				v3.84v1.28h1.28h3.58h1.28v-1.28v-4.09h0.26c0.77-0.26,1.54-0.51,2.3-1.02c0.77-0.26,1.28-0.77,2.05-1.28
				c0.51-0.51,1.02-1.02,1.54-1.79c0.51-0.51,0.77-1.28,1.28-2.05c0.26-0.77,0.51-1.54,0.77-2.3c0.26-0.77,0.26-1.54,0.26-2.56
				C364.5,148.05,364.5,147.53,364.24,146.77z"/>
		</g>
	</g>
</g>
<rect x="321.04" y="194.01" class="st1" width="63.11" height="184.08"/>
<rect x="227.44" y="255.01" class="st1" width="63.11" height="123.08"/>
<rect x="134.04" y="240.8" class="st1" width="63.11" height="137.3"/>
<rect x="40.51" y="282.08" class="st1" width="63.11" height="96.01"/>
</svg>
