<?xml version="1.0" encoding="utf-8"?>
<!-- Generator: Adobe Illustrator 23.0.0, SVG Export Plug-In . SVG Version: 6.00 Build 0)  -->
<svg version="1.1" id="Layer_1" xmlns="http://www.w3.org/2000/svg" xmlns:xlink="http://www.w3.org/1999/xlink" x="0px" y="0px"
	 viewBox="0 0 1000 1000" style="enable-background:new 0 0 1000 1000;" xml:space="preserve">
<style type="text/css">
	.st0{fill:#242424;}
	.st1{fill:none;stroke:#242424;stroke-width:63;stroke-miterlimit:10;}
</style>
<g>
	
	<rect x="353.2" y="329.54" transform="matrix(0.7071 -0.7071 0.7071 0.7071 -190.3815 493.0722)" class="st0" width="293.6" height="293.6"/>
	<circle class="st0" cx="396.54" cy="372.89" r="146.84"/>
	<circle class="st0" cx="603.46" cy="372.89" r="146.84"/>
</g>
<path class="st1" d="M891.86,87.99H108.14c-33.42,0-60.5,27.09-60.5,60.5v504.54c0,33.42,27.09,60.5,60.5,60.5h175.53
	c5.58,0,10.93,2.22,14.88,6.16l185.83,185.83c8.62,8.62,22.6,8.62,31.22,0l185.83-185.83c3.95-3.95,9.3-6.16,14.88-6.16h175.53
	c33.42,0,60.5-27.09,60.5-60.5V148.5C952.36,115.08,925.27,87.99,891.86,87.99z"/>
</svg>
