<?xml version="1.0" encoding="utf-8"?>
<!-- Generator: Adobe Illustrator 23.0.0, SVG Export Plug-In . SVG Version: 6.00 Build 0)  -->
<svg version="1.1" id="Layer_1" xmlns="http://www.w3.org/2000/svg" xmlns:xlink="http://www.w3.org/1999/xlink" x="0px" y="0px"
	 viewBox="0 0 1000 1000" style="enable-background:new 0 0 1000 1000;" xml:space="preserve">
<style type="text/css">
	.st0{fill:#242424;}
	.st1{fill:#242424;stroke:#FFFFFF;stroke-width:20;stroke-miterlimit:10;}
	.st2{fill:#FFFFFF;stroke:#242424;stroke-width:20;stroke-miterlimit:10;}
	.st3{fill:none;stroke:#242424;stroke-width:20;stroke-linecap:round;stroke-miterlimit:10;}
</style>
<path class="st0" d="M319.27,186.74c-14.35,27.42-13.01,85.71-4.66,138.87c7.94,50.49,28.67,98.11,59.96,138.53l0,0
	c25.74,33.24,69,48.47,109.5,37.21c4.3-1.19,18.15-7.33,25.38-13.28c31.67-26.04,50.83-62.47,66.01-100.45
	c7.37-18.46,19.73-77.44,19.73-77.44s0,0,0,0c10.58-95.59-3.27-113.99-15.9-137.42c-1.28-2.38-27.06-30.68-54.46-44.82
	c-27.58-14.23-46.97-22.16-83.58-20.6c-18.71,0.8-37.03,5.57-53.85,13.79l0,0c-28.55,13.96-52.11,36.25-67.3,64.03
	C319.8,185.74,319.52,186.27,319.27,186.74z"/>
<path class="st0" d="M107.46,783.04l5.75-78.56c1.44-19.74,6.36-38.99,13.52-57.45c13.23-34.13,24.8-40.5,24.8-40.5
	c4.98-3.99,10.75-6.88,16.94-8.45l197.08-50.18c0,0,44.93,167.27,53.53,173.97c8.6,6.69,16.25-110.88,16.25-110.88l-13.38-28.68
	l13.38-18.16l53.53,0.96l8.28,16.25c-2.55,6.37-12.8,29.86-12.8,29.86l13.75,113.2c0,0,53.53-145.93,56.71-176.51l101.32,23.58
	l23.58,266.37C679.7,837.84,217.7,865.88,107.46,783.04z"/>
<circle class="st1" cx="723.35" cy="723.67" r="169.19"/>
<circle class="st2" cx="723.35" cy="723.67" r="135.24"/>
<line class="st3" x1="723.35" y1="790.26" x2="723.35" y2="677.47"/>
<line class="st3" x1="779.75" y1="723.67" x2="666.96" y2="723.67"/>
</svg>
