<svg id="Layer_5" data-name="Layer 5" xmlns="http://www.w3.org/2000/svg" viewBox="0 0 496 496"><defs><style>.cls-1{fill:#242424;}</style></defs><title>Select</title><path class="cls-1" d="M72,393.47V288H56V393.47a24,24,0,1,0,16,0ZM64,424a8,8,0,1,1,8-8A8,8,0,0,1,64,424Z" transform="translate(-8 -8)"/><path class="cls-1" d="M112,288a23.94,23.94,0,0,0-8,46.53V440h16V334.53A23.94,23.94,0,0,0,112,288Zm0,32a8,8,0,1,1,8-8A8,8,0,0,1,112,320Z" transform="translate(-8 -8)"/><path class="cls-1" d="M424,393.47V288H408V393.47a24,24,0,1,0,16,0ZM416,424a8,8,0,1,1,8-8A8,8,0,0,1,416,424Z" transform="translate(-8 -8)"/><path class="cls-1" d="M464,288a23.94,23.94,0,0,0-8,46.53V440h16V334.53A23.94,23.94,0,0,0,464,288Zm0,32a8,8,0,1,1,8-8A8,8,0,0,1,464,320Z" transform="translate(-8 -8)"/><path class="cls-1" d="M352,264a23.93,23.93,0,0,0-8.93,1.76A23.79,23.79,0,0,0,304,254.24a23.27,23.27,0,0,0-24-4.77V180.63A88.29,88.29,0,0,0,343,109l33.82,18.61A78.64,78.64,0,1,0,393,118.24L343.75,91.13a87.88,87.88,0,0,0-175.5,0L119,118.24a80.86,80.86,0,1,0,16.25,9.32L169,109a88.25,88.25,0,0,0,63,71.69V328.1a24,24,0,0,1-2.45,10.56l-6.71-33.56a51.72,51.72,0,0,0-49.45-41.43c-10.38-.23-19.68,7-21.17,17.27a20.19,20.19,0,0,0,3.19,14.24l8.23,12.36a35.6,35.6,0,0,1,5.69,15.31l5.54,44.26a54.28,54.28,0,0,0,6.7,20.38L208,441.84V456h-5.77A10.23,10.23,0,0,0,192,466.23v27.54A10.23,10.23,0,0,0,202.23,504H357.77A10.23,10.23,0,0,0,368,493.77V466.23A10.23,10.23,0,0,0,357.77,456H352V442.66l12.8-17.06A56.32,56.32,0,0,0,376,392V288a24,24,0,0,0-24-24Zm72-8a63.61,63.61,0,0,1-38.34-12.87,48,48,0,0,1,76.68,0A63.61,63.61,0,0,1,424,256Zm-24-72a24,24,0,1,1,24,24A24,24,0,0,1,400,184Zm24-56a63.93,63.93,0,0,1,49.86,104,64,64,0,0,0-23.45-18.22,40,40,0,1,0-52.82,0A64.08,64.08,0,0,0,374.14,232,63.93,63.93,0,0,1,424,128ZM88,256a63.61,63.61,0,0,1-38.34-12.87,48,48,0,0,1,76.68,0A63.61,63.61,0,0,1,88,256ZM64,184a24,24,0,1,1,24,24A24,24,0,0,1,64,184Zm88,8a63.65,63.65,0,0,1-14.14,40,64,64,0,0,0-23.45-18.22,40,40,0,1,0-52.82,0A64.08,64.08,0,0,0,38.14,232,64,64,0,1,1,152,192Zm32-96a72,72,0,1,1,129.26,43.46,63.66,63.66,0,0,0-30.75-29.74,40,40,0,1,0-53,0,63.72,63.72,0,0,0-30.76,29.74A71.78,71.78,0,0,1,184,96Zm96-16a24,24,0,1,1-24-24A24,24,0,0,1,280,80Zm-69.1,72a47.77,47.77,0,0,1,90.2,0,71.3,71.3,0,0,1-24,12.82,23.79,23.79,0,0,0-42.23,0A71.23,71.23,0,0,1,210.9,152ZM352,488H208V472H352Zm8-96a40.22,40.22,0,0,1-8,24l-16,21.34V456H224V438.16L195.71,380a39.58,39.58,0,0,1-5-14.87l-5.53-44.27a51.77,51.77,0,0,0-8.26-22.2l-8.24-12.36a4.28,4.28,0,0,1-.7-2.84,4.4,4.4,0,0,1,4.44-3.82,35.68,35.68,0,0,1,34.69,28.59l9,45.19a7.73,7.73,0,0,0,7.58,6.22h7.05a9.87,9.87,0,0,0,8.84-5.46l4.11-8.21A40.21,40.21,0,0,0,248,328.11V176.28a8.18,8.18,0,0,1,7.46-8.26,8,8,0,0,1,8.54,8V304h16V272.28a8.18,8.18,0,0,1,7.46-8.26,8,8,0,0,1,8.54,8v32h16V272.28a8.18,8.18,0,0,1,7.46-8.26,8,8,0,0,1,8.54,8v32h16V288.28a8.18,8.18,0,0,1,7.46-8.26,8,8,0,0,1,8.54,8Z" transform="translate(-8 -8)"/></svg>